<svg width="480" height="115" viewBox="0 0 480 115" fill="none" xmlns="http://www.w3.org/2000/svg">
<path d="M141.25 115H0V0H141.25V115Z" fill="#FFF2DC"/>
<path d="M321.25 115H166.25V0H321.25V115Z" fill="white"/>
<path d="M480 115H346.25V0H480V115Z" fill="#FFF2DC"/>
<path d="M276.25 43.75H212.5V93.75H276.25V43.75Z" fill="black"/>
<path d="M243.747 21.25L200 51.25H287.5L243.747 21.25Z" fill="#482462"/>
<path d="M238.848 85.5809C238.889 85.5945 238.931 85.6095 238.973 85.6218C240.927 86.2424 243 86.5772 245.147 86.5772C248.485 86.5772 251.644 85.7688 254.457 84.3301L254.638 70.2295L238.849 85.5796L238.848 85.5809Z" fill="#EF3E31"/>
<path d="M253.263 63.9608L253.524 43.7414C250.593 42.1509 247.263 41.25 243.731 41.25C232.005 41.25 222.5 51.1604 222.5 63.3857C222.5 73.3311 228.792 81.7426 237.451 84.5343L253.193 69.3462L253.263 63.9608Z" fill="#FFE600"/>
<path d="M267.27 64.2705C267.27 55.7944 262.626 48.4407 255.828 44.7793L255.567 64.8424L267.267 64.5244C267.267 64.4402 267.27 64.356 267.27 64.2718V64.2705Z" fill="#F28125"/>
<path d="M255.629 64.7897L255.381 83.9775C262.354 80.4497 267.178 73.0507 267.27 64.4717L255.629 64.7897Z" fill="#F8AD1F"/>
<path d="M101.379 33.75L40.38 33.875L39.0686 33.9125L72.4543 66.8625L101.379 33.75Z" fill="black"/>
<path d="M101.379 33.75L72.5159 66.4625L101.575 90.5375L101.465 33.75H101.379Z" fill="#FFE600"/>
<path d="M39.3015 33.9004L38.75 33.9129V61.6879L38.8603 70.1629L58.605 52.8129L39.3015 33.9004Z" fill="#482462"/>
<path d="M58.4947 52.7627L38.75 69.9377V91.7502L101.575 91.0002V90.3877L58.4947 52.7627Z" fill="#F8AD1F"/>
<path d="M81.7052 37.7894C81.7487 37.6942 81.7896 37.6016 81.8304 37.5064C82.3367 36.325 82.5 35.0348 82.5 33.75C82.4973 27.5357 77.4616 22.5 71.25 22.5C65.0384 22.5 60 27.5357 60 33.75C60 34.6483 60.0953 35.5465 60.2913 36.423C60.4872 37.2995 60.8656 37.9881 61.3011 38.7884C61.3011 39.0688 61.753 39.6213 61.8918 39.8745C62.1177 40.2882 62.3409 40.702 62.5668 41.1157C63.0024 41.916 63.4379 42.719 63.8734 43.5192C64.7281 45.0953 65.6781 46.6332 66.5627 48.2011C67.9863 50.7298 69.4127 53.2558 70.8363 55.7845C70.9724 56.0268 71.1085 56.2663 71.2446 56.5086C72.8914 53.5879 74.5354 50.6645 76.1823 47.7438C77.4997 45.4056 78.8117 43.0647 80.121 40.7237C80.6518 39.7738 81.2452 38.802 81.7052 37.7894Z" fill="#EF3E31"/>
<path d="M72.4829 22.5978C72.0801 22.5569 71.6718 22.5352 71.258 22.5352C70.8443 22.5352 70.4196 22.5597 70.0086 22.6005C65.2179 23.0904 61.3418 26.3677 60.321 30.6358L73.4057 26.8795L82.4155 33.7988C82.4454 33.4939 82.4617 33.1836 82.4617 32.8733C82.4617 27.5463 78.0957 23.1612 72.4829 22.5978Z" fill="black"/>
<rect x="372.5" y="33.9893" width="82.0938" height="58.7395" fill="black"/>
<path d="M449.64 48.1436V88.1289L448.578 89.1905H377.454V48.1436H449.64ZM394.439 55.9283H384.531V65.8362H394.439V55.9283ZM410.716 55.9283H400.808V65.8362H410.716V55.9283ZM426.286 55.9283H416.378V65.8362H426.286V55.9283ZM442.563 55.9283H432.655V65.8362H442.563V55.9283ZM394.439 71.4978H384.531V81.4057H394.439V71.4978ZM410.716 71.4978H400.808V81.4057H410.716V71.4978ZM426.286 71.4978H416.378V81.4057H426.286V71.4978ZM442.563 71.4978H432.655V81.4057H442.563V71.4978Z" fill="#482462"/>
<path d="M394.439 55.9277H384.531V65.8356H394.439V55.9277Z" fill="#F8AD1F"/>
<path d="M410.716 55.9277H400.808V65.8356H410.716V55.9277Z" fill="#EF3E31"/>
<path d="M426.286 55.9277H416.378V65.8356H426.286V55.9277Z" fill="#F8AD1F"/>
<path d="M442.563 55.9277H432.655V65.8356H442.563V55.9277Z" fill="#F8AD1F"/>
<path d="M394.439 71.498H384.531V81.4059H394.439V71.498Z" fill="#F8AD1F"/>
<path d="M410.716 71.498H400.808V81.4059H410.716V71.498Z" fill="#F8AD1F"/>
<path d="M426.286 71.498H416.378V81.4059H426.286V71.498Z" fill="#F8AD1F"/>
<path d="M442.563 71.498H432.655V81.4059H442.563V71.498Z" fill="#F8AD1F"/>
<rect x="429.116" y="21.25" width="8.49246" height="18.4003" fill="#FFF2DC"/>
<rect x="430.532" y="26.2031" width="5.66164" height="12.031" fill="black"/>
<rect x="388.069" y="21.25" width="8.49246" height="18.4003" fill="#FFF2DC"/>
<rect x="389.485" y="26.2031" width="5.66164" height="12.031" fill="black"/>
</svg>
